<svg id="Layer_1" data-name="Layer 1" xmlns="http://www.w3.org/2000/svg" viewBox="0 0 720 363.33"><defs><style>.cls-1{fill:#aca59b;}.cls-2{fill:#d0dd36;}</style></defs><title>OCTO_firstCollection_logo</title><path class="cls-1" d="M91.55,300.2,98,303.38c-3.82,5.9-11.23,10.13-21.47,10.13-15.16,0-24.71-8.16-24.71-21.47s9.55-21.47,25-21.47c9.95,0,17.36,4.28,21.12,10.07l-6.48,3.24c-3-5-8.16-7.17-14.75-7.17-10.71,0-17.83,5.2-17.83,15.33S66,307.37,76.68,307.37C83.27,307.37,88.48,305.23,91.55,300.2Z"/><path class="cls-1" d="M120.24,292c0-13.37,9.61-21.47,25.17-21.47s25.17,8.1,25.17,21.47-9.6,21.47-25.17,21.47S120.24,305.41,120.24,292Zm43.22,0c0-9.84-7.06-15.33-18.05-15.33S127.3,282.2,127.3,292s7.06,15.33,18.11,15.33S163.46,301.88,163.46,292Z"/><path class="cls-1" d="M234.16,306.16v6.13H197.37v-40.5h6.94v34.37Z"/><path class="cls-1" d="M295.67,306.16v6.13h-36.8v-40.5h6.94v34.37Z"/><path class="cls-1" d="M360.7,306.22v6.07H320.37v-40.5h39.75v6.07H327.25v10.82h27.66v6.08H327.25v11.46Z"/><path class="cls-1" d="M422.89,300.2l6.43,3.18c-3.82,5.9-11.23,10.13-21.47,10.13-15.16,0-24.71-8.16-24.71-21.47s9.55-21.47,25-21.47c9.95,0,17.36,4.28,21.12,10.07l-6.48,3.24c-3-5-8.16-7.17-14.76-7.17-10.7,0-17.82,5.2-17.82,15.33s7.12,15.33,17.82,15.33C414.62,307.37,419.83,305.23,422.89,300.2Z"/><path class="cls-1" d="M493.42,277.86H475v34.43h-7V277.86H449.68v-6.07h43.74Z"/><path class="cls-1" d="M518.07,312.29v-40.5H525v40.5Z"/><path class="cls-1" d="M551.74,292c0-13.37,9.61-21.47,25.17-21.47s25.17,8.1,25.17,21.47-9.61,21.47-25.17,21.47S551.74,305.41,551.74,292ZM595,292c0-9.84-7.06-15.33-18.05-15.33S558.8,282.2,558.8,292s7.06,15.33,18.11,15.33S595,301.88,595,292Z"/><path class="cls-1" d="M673.36,271.79v40.5h-6.13l-31.65-31.94v31.94h-6.72v-40.5h7.41l30.32,30.72V271.79Z"/><path class="cls-2" d="M279.07,204.87a188,188,0,0,1,10.79-72.39c3.85-10.76,9.15-22,6.2-33.69a23.16,23.16,0,0,0-7.48-12.38c-4.46-3.6-11.86-6.06-15.85-.43a13.77,13.77,0,0,0-2,7.39c-.14,3-.1,6.11-.12,9.16q-.08,9.8.08,19.6.29,19.38,1.41,38.73,2.28,39,7.93,77.75c1.73,11.91,3.45,23.91,6.1,35.65,2.32,10.33,5.7,20.76,11.8,29.52a55.46,55.46,0,0,0,5.16,6.39,3.31,3.31,0,0,0,5.17-.67c4.86-9.77,6.6-20.57,7-31.39a269.19,269.19,0,0,0-.85-30.19c-.76-9.69-2.29-19.35-6.22-28.29a45.34,45.34,0,0,0-18.87-21c-9.33-5.41-20-8-30.57-9.65l-.88,6.47c21.43,1.14,43-7.4,58.37-22.27a75.68,75.68,0,0,0,11.44-14.16l-6.13-1.66.63,35.36c.1,5.27-.12,11.21,3.25,15.62,3,3.88,8.83,6.21,13.26,3.25a12.94,12.94,0,0,0,4.59-6.27c1-2.44,1.84-4.94,2.78-7.4,2-5.21,4.09-10.39,6.29-15.49s4.57-10.32,7-15.41c1.18-2.46,2.29-5,3.66-7.37a4.43,4.43,0,0,1,.36-.59c-.31.43.19-.38,0-.08s.53-.37,0-.07l.31-.08-.27,0h.3c-.36,0-.35,0,.05.05.07,0,.57.21.12,0a8.17,8.17,0,0,1,1.78,1.11l.18.16.81.71c.51.46,1,.93,1.56,1.37a33.65,33.65,0,0,0,3.47,2.55,32.66,32.66,0,0,0,24.15,4.26l-4.05-4.05a104.44,104.44,0,0,0-6.37,26.19,58.78,58.78,0,0,0-.51,12.78c.49,4.44,2.63,8.09,6.88,9.79a13.94,13.94,0,0,0,10.66-.52c3.7-1.65,6.46-4.83,8.8-8,2.6-3.55,4.93-7.3,7.37-10.95l7.83-11.78,17.63-26.49-4.5,1.18a60,60,0,0,1,16.47,15.29,57.93,57.93,0,0,1,5.84,9.94l.24.55c0-.13-.21-.56,0,0,.15.38.3.76.44,1.14.3.81.57,1.63.81,2.47a34.49,34.49,0,0,1,1.07,4.94c-.09-.69.05.48.06.63,0,.4.06.8.08,1.2.05.85.05,1.69,0,2.53,0,.39,0,.78-.08,1.17,0,.23-.15,1.07,0,.42a23.29,23.29,0,0,1-.53,2.51c-.11.36-.22.72-.34,1.07s-.48,1.14-.19.51a17.28,17.28,0,0,1-1.12,2.07c-.17.27-.36.53-.55.79.4-.54-.23.26-.37.42s-.52.54-.8.8l-.42.39s-.79.6-.25.21a16.61,16.61,0,0,1-2,1.19c-.11.06-.58.25,0,0l-.54.21c-.36.12-.73.24-1.11.33s-.75.17-1.13.25c-.62.13-.12,0,0,0l-.58,0a17.64,17.64,0,0,1-2.62,0c-.14,0-.63-.1,0,0l-.57-.1c-.34-.06-.67-.14-1-.22s-.75-.21-1.12-.34l-.54-.2c-.36-.13.4.21-.15-.07a17.44,17.44,0,0,1-2-1.14l-.47-.34c.48.36.08,0,0,0-.35-.33-.71-.64-1-1-.15-.15-.77-.93-.42-.45a12.09,12.09,0,0,1-.79-1.22c-.1-.17-.19-.34-.28-.52s-.36-.78-.19-.39-.07-.19-.11-.28-.15-.45-.23-.69a13.59,13.59,0,0,1-.34-1.4c0-.19-.07-.38-.1-.57.07.48,0,.17,0-.14a19.1,19.1,0,0,1,0-2.62c0-.1.08-.71,0-.28s.07-.35.08-.43c.09-.48.21-.95.34-1.42s.27-.83.43-1.24-.22.44,0,0l.32-.65c.2-.39.42-.76.65-1.13.09-.14.83-1.11.42-.62a14.11,14.11,0,0,1,1-1.07l.42-.39c.11-.1.77-.62.24-.22a3.4,3.4,0,0,0,1.18-4.51c-.82-1.39-3.07-2.25-4.5-1.18a18.22,18.22,0,0,0-5.42,22.32c3.57,7.43,13,10.76,20.7,8.5,8.11-2.37,12.35-10.17,12.74-18.19.4-8.2-2.67-16.17-6.89-23.05a66.37,66.37,0,0,0-21.41-21.51,3.35,3.35,0,0,0-4.5,1.18q-14.64,22-29.26,44c-2.07,3.1-3.72,5.89-6.26,8.36-.34.32-.69.63-1,.93,0,0-.43.34-.22.18s-.33.22-.37.25c-.34.23-.68.45-1,.65-.2.11-1.16.56-.57.32a16.2,16.2,0,0,1-2,.58c-.59.16-.14,0,0,0l-.58.05a11.27,11.27,0,0,1-1.16,0l-.58,0c.06,0,.54.11.17,0s-.64-.13-1-.22-1.17-.46-.52-.14c-.33-.16-.64-.35-1-.54-.13-.07-.46-.38,0,0a2.8,2.8,0,0,1-.31-.28c-.15-.16-.65-.77-.31-.28a4.5,4.5,0,0,1-.9-2.06c0-.17-.07-.35-.1-.52-.11-.58,0,.4,0-.19,0-.43-.06-.85-.08-1.27,0-1,0-2,0-3.06q.09-3,.36-6a98.91,98.91,0,0,1,6.37-26.71c1-2.52-1.84-4.51-4.05-4a24.52,24.52,0,0,1-6.36.48c-.46,0-.92-.05-1.38-.1l-.59-.06-.6-.09a30,30,0,0,1-3.38-.76,27.68,27.68,0,0,1-10.73-6.19c-2-1.78-4.25-3.46-7-3.71-2.94-.27-5.35,1.55-6.76,4s-2.47,4.92-3.65,7.38-2.3,4.84-3.41,7.28q-6.9,15.12-12.63,30.74c-.17.47-.35.93-.53,1.4-.36,1,.15-.3-.1.26-.12.24-.23.49-.35.73s-.42.73-.65,1.1c-.45.73.37-.27-.25.31-.09.08-.75.66-.26.3-.17.13-.36.22-.53.33-.74.47.32-.06-.16.07-.23.06-.46.13-.7.17.21,0,.55,0,0-.05,0,0-.92-.09-.42,0s-.43-.11-.42-.11c-.19,0-.38-.12-.56-.18.61.2-.22-.12-.31-.17s-.43-.26-.64-.39c-.47-.3.51.5-.19-.13a11.1,11.1,0,0,1-1-1c-.34-.4.31.61-.12-.18-.1-.2-.23-.39-.34-.58a5.72,5.72,0,0,1-.58-1.41,22.71,22.71,0,0,1-.77-6.69c-.26-12.72-.46-25.44-.69-38.15a3.31,3.31,0,0,0-6.13-1.66,70.63,70.63,0,0,1-20.44,20.91c-2,1.36-4.15,2.63-6.32,3.79-1.08.58-2.18,1.14-3.29,1.66-.56.27-1.11.53-1.68.78l-.76.34-.14.06-.62.26a75.64,75.64,0,0,1-14.42,4.29,69,69,0,0,1-16.46,1.08,3.26,3.26,0,0,0-3.23,2.85c-.17,1.47.72,3.35,2.36,3.61a131.54,131.54,0,0,1,13.48,2.79c2.19.59,4.35,1.26,6.48,2a47.08,47.08,0,0,1,5.88,2.48c8.07,4,14.14,9.47,18.28,17.39a52.32,52.32,0,0,1,4.37,12.13,87,87,0,0,1,2.09,12.92A281.84,281.84,0,0,1,308.73,274c0,2.85-.12,5.7-.32,8.54a79.39,79.39,0,0,1-.93,7.91,57.58,57.58,0,0,1-4.92,15.71l5.17-.67a41.61,41.61,0,0,1-4.52-5.63,57.34,57.34,0,0,1-3.78-6.48,58.12,58.12,0,0,1-2.8-6.48c-.91-2.45-1.71-4.94-2.41-7.45-3-10.61-4.62-21.61-6.32-32.49q-5.81-37-8.46-74.39t-2.22-74.85c0-1.45,0-2.91.08-4.37,0-.5.06-1,.12-1.51-.08.65,0,0,0-.17.07-.34.15-.68.25-1,0-.1.38-1,.07-.29.08-.17.16-.34.25-.5s.62-.71.13-.22c.13-.13.25-.27.39-.39-.54.47.13,0,.27-.1-.44.17.52,0,.15,0s.76,0,.64,0c.42,0,.49,0,.22,0,.24,0,.48.11.71.18s.47.14.7.22c.07,0,1,.43.33.12.45.22.89.44,1.32.69s.84.53,1.24.81c-.57-.41.2.17.25.22q.35.28.66.6a14.68,14.68,0,0,1,1,1.07c.2.22.39.45.57.68-.37-.47,0,.06.11.18a20.53,20.53,0,0,1,1.75,3c.09.18.17.37.25.55-.28-.63.12.3.14.36.18.48.35,1,.5,1.46a30.77,30.77,0,0,1,.77,3.32c.19,1,0-.66.05.35,0,.25.06.51.08.76.05.57.07,1.13.08,1.69a29.78,29.78,0,0,1-.23,4.12c-.65,5.27-2.82,11-4.78,16.17a198.48,198.48,0,0,0-13.08,70.42q0,4.35.22,8.69a3.35,3.35,0,0,0,3.29,3.29,3.31,3.31,0,0,0,3.29-3.29Z"/><path class="cls-2" d="M325.45,133.9c.17.11.34.22.51.35l-.67-.52a5.13,5.13,0,0,1,.84.84l-.52-.66a4.88,4.88,0,0,1,.65,1.13l-.33-.79a6.26,6.26,0,0,1,.39,1.47l-.11-.87a7,7,0,0,1,0,1.89l.12-.87a7.81,7.81,0,0,1-.49,1.84l.33-.79a6.76,6.76,0,0,1-.84,1.45l.52-.67a5,5,0,0,1-1,1l.67-.51a5.47,5.47,0,0,1-1.07.63l.79-.34a4.83,4.83,0,0,1-1.11.31l2.54.33a4.45,4.45,0,0,1-.51-.33l.67.52a4.09,4.09,0,0,1-.72-.72l.51.66a4.56,4.56,0,0,1-.57-1l.33.79a5.3,5.3,0,0,1-.34-1.3l.12.87a6,6,0,0,1,0-1.64l-.12.88a6.82,6.82,0,0,1,.47-1.73l-.33.78a6.06,6.06,0,0,1,.76-1.3l-.52.67a5.47,5.47,0,0,1,.9-.9l-.66.51a4.4,4.4,0,0,1,.92-.53l-.78.33a4.27,4.27,0,0,1,1-.27l-.87.12a1.84,1.84,0,0,1,.33,0,3.53,3.53,0,0,0,2.33-1,3.39,3.39,0,0,0,1-2.33,3.31,3.31,0,0,0-3.3-3.29,7.43,7.43,0,0,0-2.14.4,8.15,8.15,0,0,0-2.49,1.44,7.66,7.66,0,0,0-2.08,2.74,10.35,10.35,0,0,0-1,4.21,8.85,8.85,0,0,0,1,4.16,7.13,7.13,0,0,0,1.24,1.7,5.18,5.18,0,0,0,2.83,1.62,6,6,0,0,0,3.26-.73,7.91,7.91,0,0,0,1.78-1.19,8.11,8.11,0,0,0,2.13-2.83,11.49,11.49,0,0,0,1.08-4.23,8.66,8.66,0,0,0-4.07-8,3.41,3.41,0,0,0-2.54-.33,3.31,3.31,0,0,0-2.3,4,3.46,3.46,0,0,0,1.52,2Z"/><path class="cls-2" d="M487.55,190.73q-.35-16.62-.3-33.22t.45-33.22q.24-9.36.59-18.71h-6.58c1.28,10.59,2.57,21.18,4.05,31.75,1.44,10.34,3.06,20.65,5.05,30.89q1.49,7.68,3.28,15.29.9,3.81,1.89,7.59c.53,2.05,1,4.1,1.77,6.08a30.17,30.17,0,0,0,2.64,5.64,17.61,17.61,0,0,0,4.4,4.82,11.3,11.3,0,0,0,5.93,2.06,13.61,13.61,0,0,0,7.68-2.18,57.46,57.46,0,0,0,6.26-4.59q2.87-2.28,5.59-4.69a139.74,139.74,0,0,0,10.34-10.17c.82-.9,1.63-1.81,2.42-2.73a3.48,3.48,0,0,0,1-2.32,3.3,3.3,0,0,0-5.62-2.33,138.53,138.53,0,0,1-15.18,15q-2.29,1.94-4.68,3.78l.67-.51a28.4,28.4,0,0,1-6,3.87l.79-.33a10.78,10.78,0,0,1-2.42.69l.87-.12a8.48,8.48,0,0,1-2.25,0l.87.11a8,8,0,0,1-1.9-.52l.79.33a8.71,8.71,0,0,1-2-1.18l.67.52a12.5,12.5,0,0,1-2.12-2.18l.51.67a21.62,21.62,0,0,1-2.65-4.74l.33.79a76.35,76.35,0,0,1-3.23-11q-1.64-6.54-3-13.15C496.56,163.87,495,155,493.63,146c-.77-5-1.48-10.07-2.16-15.11l.11.87c-.91-6.79-1.75-13.59-2.58-20.4-.24-1.94-.47-3.88-.71-5.82a3.59,3.59,0,0,0-1-2.33,3.29,3.29,0,0,0-5.62,2.33q-.63,16.59-.88,33.2T480.7,172q.07,9.36.27,18.73a3.29,3.29,0,0,0,6.58,0Z"/><path class="cls-2" d="M468.87,153.75a83.91,83.91,0,0,0,16.69-.53,88.81,88.81,0,0,0,16.9-3.85,91.54,91.54,0,0,0,9.43-3.81,3.29,3.29,0,0,0,1.51-2,3.3,3.3,0,0,0-2.3-4.05l-.87-.11a3.23,3.23,0,0,0-1.66.45c-1,.45-2,.89-2.95,1.31l.79-.33a84.32,84.32,0,0,1-16.66,5.07c-1.6.31-3.21.58-4.83.8l.87-.12a83.91,83.91,0,0,1-13.16.73c-1.26,0-2.51-.08-3.76-.17a3.34,3.34,0,0,0-2.33,1,3.3,3.3,0,0,0,0,4.65,3.64,3.64,0,0,0,2.33,1Z"/></svg>